<svg xmlns="http://www.w3.org/2000/svg" xmlns:xlink="http://www.w3.org/1999/xlink" width="894pt" height="405pt" viewBox="0.00 0.00 670.50 304.00">
<g id="graph0" class="graph" transform="scale(0.75 0.75) rotate(0) translate(4 300)">
<title>G</title>
<polygon fill="white" stroke="transparent" points="-4,4 -4,-300 666.5,-300 666.5,4 -4,4"/>
<!-- 140179185775520 -->
<g id="node1" class="node">
<title>140179185775520</title>
<polygon fill="none" stroke="black" points="30.5,-249.5 30.5,-295.5 287.5,-295.5 287.5,-249.5 30.5,-249.5"/>
<text text-anchor="middle" x="78.5" y="-280.3" font-family="Times,serif" font-size="14.00">User_Input</text>
<polyline fill="none" stroke="black" points="30.5,-272.5 126.5,-272.5 "/>
<text text-anchor="middle" x="78.5" y="-257.3" font-family="Times,serif" font-size="14.00">InputLayer</text>
<polyline fill="none" stroke="black" points="126.5,-249.5 126.5,-295.5 "/>
<text text-anchor="middle" x="160.5" y="-280.3" font-family="Times,serif" font-size="14.00">input:</text>
<polyline fill="none" stroke="black" points="126.5,-272.5 194.5,-272.5 "/>
<text text-anchor="middle" x="160.5" y="-257.3" font-family="Times,serif" font-size="14.00">output:</text>
<polyline fill="none" stroke="black" points="194.5,-249.5 194.5,-295.5 "/>
<text text-anchor="middle" x="241" y="-280.3" font-family="Times,serif" font-size="14.00">[(None, 1)]</text>
<polyline fill="none" stroke="black" points="194.5,-272.5 287.5,-272.5 "/>
<text text-anchor="middle" x="241" y="-257.3" font-family="Times,serif" font-size="14.00">[(None, 1)]</text>
</g>
<!-- 140179186054672 -->
<g id="node3" class="node">
<title>140179186054672</title>
<polygon fill="none" stroke="black" points="0,-166.5 0,-212.5 318,-212.5 318,-166.5 0,-166.5"/>
<text text-anchor="middle" x="70" y="-197.3" font-family="Times,serif" font-size="14.00">User_Embedding</text>
<polyline fill="none" stroke="black" points="0,-189.5 140,-189.5 "/>
<text text-anchor="middle" x="70" y="-174.3" font-family="Times,serif" font-size="14.00">Embedding</text>
<polyline fill="none" stroke="black" points="140,-166.5 140,-212.5 "/>
<text text-anchor="middle" x="174" y="-197.3" font-family="Times,serif" font-size="14.00">input:</text>
<polyline fill="none" stroke="black" points="140,-189.5 208,-189.5 "/>
<text text-anchor="middle" x="174" y="-174.3" font-family="Times,serif" font-size="14.00">output:</text>
<polyline fill="none" stroke="black" points="208,-166.5 208,-212.5 "/>
<text text-anchor="middle" x="263" y="-197.3" font-family="Times,serif" font-size="14.00">(None, 1)</text>
<polyline fill="none" stroke="black" points="208,-189.5 318,-189.5 "/>
<text text-anchor="middle" x="263" y="-174.3" font-family="Times,serif" font-size="14.00">(None, 1, 50)</text>
</g>
<!-- 140179185775520&#45;&gt;140179186054672 -->
<g id="edge1" class="edge">
<title>140179185775520-&gt;140179186054672</title>
<path fill="none" stroke="black" d="M159,-249.37C159,-241.15 159,-231.66 159,-222.73"/>
<polygon fill="black" stroke="black" points="162.5,-222.61 159,-212.61 155.5,-222.61 162.5,-222.61"/>
</g>
<!-- 140179186056208 -->
<g id="node2" class="node">
<title>140179186056208</title>
<polygon fill="none" stroke="black" points="366,-249.5 366,-295.5 632,-295.5 632,-249.5 366,-249.5"/>
<text text-anchor="middle" x="418.5" y="-280.3" font-family="Times,serif" font-size="14.00">Movie_Input</text>
<polyline fill="none" stroke="black" points="366,-272.5 471,-272.5 "/>
<text text-anchor="middle" x="418.5" y="-257.3" font-family="Times,serif" font-size="14.00">InputLayer</text>
<polyline fill="none" stroke="black" points="471,-249.5 471,-295.5 "/>
<text text-anchor="middle" x="505" y="-280.3" font-family="Times,serif" font-size="14.00">input:</text>
<polyline fill="none" stroke="black" points="471,-272.5 539,-272.5 "/>
<text text-anchor="middle" x="505" y="-257.3" font-family="Times,serif" font-size="14.00">output:</text>
<polyline fill="none" stroke="black" points="539,-249.5 539,-295.5 "/>
<text text-anchor="middle" x="585.5" y="-280.3" font-family="Times,serif" font-size="14.00">[(None, 1)]</text>
<polyline fill="none" stroke="black" points="539,-272.5 632,-272.5 "/>
<text text-anchor="middle" x="585.5" y="-257.3" font-family="Times,serif" font-size="14.00">[(None, 1)]</text>
</g>
<!-- 140179146590192 -->
<g id="node4" class="node">
<title>140179146590192</title>
<polygon fill="none" stroke="black" points="335.5,-166.5 335.5,-212.5 662.5,-212.5 662.5,-166.5 335.5,-166.5"/>
<text text-anchor="middle" x="410" y="-197.3" font-family="Times,serif" font-size="14.00">Movie_Embedding</text>
<polyline fill="none" stroke="black" points="335.5,-189.5 484.5,-189.5 "/>
<text text-anchor="middle" x="410" y="-174.3" font-family="Times,serif" font-size="14.00">Embedding</text>
<polyline fill="none" stroke="black" points="484.5,-166.5 484.5,-212.5 "/>
<text text-anchor="middle" x="518.5" y="-197.3" font-family="Times,serif" font-size="14.00">input:</text>
<polyline fill="none" stroke="black" points="484.5,-189.5 552.5,-189.5 "/>
<text text-anchor="middle" x="518.5" y="-174.3" font-family="Times,serif" font-size="14.00">output:</text>
<polyline fill="none" stroke="black" points="552.5,-166.5 552.5,-212.5 "/>
<text text-anchor="middle" x="607.5" y="-197.3" font-family="Times,serif" font-size="14.00">(None, 1)</text>
<polyline fill="none" stroke="black" points="552.5,-189.5 662.5,-189.5 "/>
<text text-anchor="middle" x="607.5" y="-174.3" font-family="Times,serif" font-size="14.00">(None, 1, 50)</text>
</g>
<!-- 140179186056208&#45;&gt;140179146590192 -->
<g id="edge2" class="edge">
<title>140179186056208-&gt;140179146590192</title>
<path fill="none" stroke="black" d="M499,-249.37C499,-241.15 499,-231.66 499,-222.73"/>
<polygon fill="black" stroke="black" points="502.5,-222.61 499,-212.61 495.5,-222.61 502.5,-222.61"/>
</g>
<!-- 140179185776432 -->
<g id="node5" class="node">
<title>140179185776432</title>
<polygon fill="none" stroke="black" points="35,-83.5 35,-129.5 317,-129.5 317,-83.5 35,-83.5"/>
<text text-anchor="middle" x="87" y="-114.3" font-family="Times,serif" font-size="14.00">User_Vector</text>
<polyline fill="none" stroke="black" points="35,-106.5 139,-106.5 "/>
<text text-anchor="middle" x="87" y="-91.3" font-family="Times,serif" font-size="14.00">Flatten</text>
<polyline fill="none" stroke="black" points="139,-83.5 139,-129.5 "/>
<text text-anchor="middle" x="173" y="-114.3" font-family="Times,serif" font-size="14.00">input:</text>
<polyline fill="none" stroke="black" points="139,-106.5 207,-106.5 "/>
<text text-anchor="middle" x="173" y="-91.3" font-family="Times,serif" font-size="14.00">output:</text>
<polyline fill="none" stroke="black" points="207,-83.5 207,-129.5 "/>
<text text-anchor="middle" x="262" y="-114.3" font-family="Times,serif" font-size="14.00">(None, 1, 50)</text>
<polyline fill="none" stroke="black" points="207,-106.5 317,-106.5 "/>
<text text-anchor="middle" x="262" y="-91.3" font-family="Times,serif" font-size="14.00">(None, 50)</text>
</g>
<!-- 140179186054672&#45;&gt;140179185776432 -->
<g id="edge3" class="edge">
<title>140179186054672-&gt;140179185776432</title>
<path fill="none" stroke="black" d="M163.65,-166.37C165.39,-158.06 167.41,-148.45 169.3,-139.43"/>
<polygon fill="black" stroke="black" points="172.73,-140.11 171.36,-129.61 165.88,-138.67 172.73,-140.11"/>
</g>
<!-- 140179186055104 -->
<g id="node6" class="node">
<title>140179186055104</title>
<polygon fill="none" stroke="black" points="344.5,-83.5 344.5,-129.5 635.5,-129.5 635.5,-83.5 344.5,-83.5"/>
<text text-anchor="middle" x="401" y="-114.3" font-family="Times,serif" font-size="14.00">Movie_Vector</text>
<polyline fill="none" stroke="black" points="344.5,-106.5 457.5,-106.5 "/>
<text text-anchor="middle" x="401" y="-91.3" font-family="Times,serif" font-size="14.00">Flatten</text>
<polyline fill="none" stroke="black" points="457.5,-83.5 457.5,-129.5 "/>
<text text-anchor="middle" x="491.5" y="-114.3" font-family="Times,serif" font-size="14.00">input:</text>
<polyline fill="none" stroke="black" points="457.5,-106.5 525.5,-106.5 "/>
<text text-anchor="middle" x="491.5" y="-91.3" font-family="Times,serif" font-size="14.00">output:</text>
<polyline fill="none" stroke="black" points="525.5,-83.5 525.5,-129.5 "/>
<text text-anchor="middle" x="580.5" y="-114.3" font-family="Times,serif" font-size="14.00">(None, 1, 50)</text>
<polyline fill="none" stroke="black" points="525.5,-106.5 635.5,-106.5 "/>
<text text-anchor="middle" x="580.5" y="-91.3" font-family="Times,serif" font-size="14.00">(None, 50)</text>
</g>
<!-- 140179146590192&#45;&gt;140179186055104 -->
<g id="edge4" class="edge">
<title>140179146590192-&gt;140179186055104</title>
<path fill="none" stroke="black" d="M496.54,-166.37C495.63,-158.15 494.57,-148.66 493.58,-139.73"/>
<polygon fill="black" stroke="black" points="497.04,-139.16 492.46,-129.61 490.08,-139.93 497.04,-139.16"/>
</g>
<!-- 140179146594896 -->
<g id="node7" class="node">
<title>140179146594896</title>
<polygon fill="none" stroke="black" points="148.5,-0.5 148.5,-46.5 507.5,-46.5 507.5,-0.5 148.5,-0.5"/>
<text text-anchor="middle" x="201" y="-31.3" font-family="Times,serif" font-size="14.00">Dot_Product</text>
<polyline fill="none" stroke="black" points="148.5,-23.5 253.5,-23.5 "/>
<text text-anchor="middle" x="201" y="-8.3" font-family="Times,serif" font-size="14.00">Dot</text>
<polyline fill="none" stroke="black" points="253.5,-0.5 253.5,-46.5 "/>
<text text-anchor="middle" x="287.5" y="-31.3" font-family="Times,serif" font-size="14.00">input:</text>
<polyline fill="none" stroke="black" points="253.5,-23.5 321.5,-23.5 "/>
<text text-anchor="middle" x="287.5" y="-8.3" font-family="Times,serif" font-size="14.00">output:</text>
<polyline fill="none" stroke="black" points="321.5,-0.5 321.5,-46.5 "/>
<text text-anchor="middle" x="414.5" y="-31.3" font-family="Times,serif" font-size="14.00">[(None, 50), (None, 50)]</text>
<polyline fill="none" stroke="black" points="321.5,-23.5 507.5,-23.5 "/>
<text text-anchor="middle" x="414.5" y="-8.3" font-family="Times,serif" font-size="14.00">(None, 1)</text>
</g>
<!-- 140179185776432&#45;&gt;140179146594896 -->
<g id="edge5" class="edge">
<title>140179185776432-&gt;140179146594896</title>
<path fill="none" stroke="black" d="M217.53,-83.37C236.05,-73.5 258.03,-61.79 277.48,-51.42"/>
<polygon fill="black" stroke="black" points="279.34,-54.4 286.52,-46.61 276.04,-48.22 279.34,-54.4"/>
</g>
<!-- 140179186055104&#45;&gt;140179146594896 -->
<g id="edge6" class="edge">
<title>140179186055104-&gt;140179146594896</title>
<path fill="none" stroke="black" d="M445.73,-83.37C425.82,-73.41 402.15,-61.58 381.28,-51.14"/>
<polygon fill="black" stroke="black" points="382.72,-47.95 372.21,-46.61 379.59,-54.21 382.72,-47.95"/>
</g>
</g>
</svg>